<?xml version="1.0" encoding="UTF-8"?>
<!DOCTYPE svg PUBLIC "-//W3C//DTD SVG 1.1//EN" "http://www.w3.org/Graphics/SVG/1.1/DTD/svg11.dtd">
<!-- Creator: CorelDRAW 2021 (64-Bit) -->
<svg xmlns="http://www.w3.org/2000/svg" xml:space="preserve" width="75.9354mm" height="75.9354mm" version="1.1" style="shape-rendering:geometricPrecision; text-rendering:geometricPrecision; image-rendering:optimizeQuality; fill-rule:evenodd; clip-rule:evenodd"
viewBox="0 0 31584.8 31584.8"
 xmlns:xlink="http://www.w3.org/1999/xlink"
 xmlns:xodm="http://www.corel.com/coreldraw/odm/2003">
 <defs>
  <style type="text/css">
   <![CDATA[
    .fil0 {fill:white}
    .fil1 {fill:white;fill-rule:nonzero}
   ]]>
  </style>
 </defs>
 <g id="Capa_x0020_1">
  <metadata id="CorelCorpID_0Corel-Layer"/>
  <path class="fil0" d="M29163.64 15792.4c0,7384.74 -5986.5,13371.24 -13371.24,13371.24 -7384.74,0 -13371.24,-5986.5 -13371.24,-13371.24 0,-7384.74 5986.5,-13371.24 13371.24,-13371.24 7384.74,0 13371.24,5986.5 13371.24,13371.24zm-13371.24 -15792.4c-8721.91,0 -15792.4,7070.49 -15792.4,15792.4 0,8721.91 7070.49,15792.4 15792.4,15792.4 8721.91,0 15792.4,-7070.49 15792.4,-15792.4 0,-8721.91 -7070.49,-15792.4 -15792.4,-15792.4z"/>
  <g id="_2808134243584">
   <polygon class="fil1" points="14791.23,23677.14 14791.23,11962.65 16777.4,11962.65 16777.4,23677.14 "/>
   <polygon class="fil1" points="14791.23,9773.21 14791.23,7516.13 16777.4,7516.13 16777.4,9773.21 "/>
  </g>
 </g>
</svg>
