<?xml version="1.0" encoding="UTF-8"?>
<!DOCTYPE svg PUBLIC "-//W3C//DTD SVG 1.1//EN" "http://www.w3.org/Graphics/SVG/1.1/DTD/svg11.dtd">
<!-- Creator: CorelDRAW 2021 (64-Bit) -->
<svg xmlns="http://www.w3.org/2000/svg" xml:space="preserve" width="34.8059mm" height="41.6718mm" version="1.1" style="shape-rendering:geometricPrecision; text-rendering:geometricPrecision; image-rendering:optimizeQuality; fill-rule:evenodd; clip-rule:evenodd"
viewBox="0 0 607.22 727"
 xmlns:xlink="http://www.w3.org/1999/xlink"
 xmlns:xodm="http://www.corel.com/coreldraw/odm/2003">
 <defs>
  <style type="text/css">
   <![CDATA[
    .fil0 {fill:white}
   ]]>
  </style>
 </defs>
 <g id="Capa_x0020_1">
  <metadata id="CorelCorpID_0Corel-Layer"/>
  <g id="_2808401530208">
   <path class="fil0" d="M272.36 62.48c-43.19,10.06 -58.25,13.9 -95.13,39.77 -14.33,10.06 -30.94,26.39 -41.6,40.76 -95.08,128.13 6.13,219.15 -91.06,343.44 -21.24,27.17 -40.22,28.18 -44.33,63.68 -2.98,25.72 21.41,56.18 52.02,56.18l502.66 0c29.87,0 54.21,-29.22 52.18,-55 -3.85,-48.82 -54.65,-46.07 -82.18,-135.09 -26.81,-86.68 23.19,-170.07 -53.36,-273.22 -2.15,-2.89 -3.31,-4.5 -5.73,-7.04 -15.18,-15.88 -15.01,-18.11 -35.04,-33.11 -5.53,-4.14 -9.86,-7.6 -15.98,-11 -36.74,-20.35 -39.62,-19.97 -79.97,-29.37 0,-29.86 4.48,-62.48 -34.08,-62.48 -12.5,0 -22.51,9.84 -26,19.44 -3.8,10.43 -2.4,29.34 -2.4,43.04z"/>
   <path class="fil0" d="M297.92 727c36.89,0 55.18,-7.27 81.15,-28.18 7.68,-6.19 17.49,-18.64 22.46,-27.24 11.56,-19.99 9.88,-26.37 14.24,-35.45l-224.35 0c5.96,12.42 8.38,38.92 35.92,62.06 16.09,13.52 41.73,28.82 70.58,28.82z"/>
  </g>
 </g>
</svg>
