<?xml version="1.0" encoding="UTF-8"?>
<!DOCTYPE svg PUBLIC "-//W3C//DTD SVG 1.1//EN" "http://www.w3.org/Graphics/SVG/1.1/DTD/svg11.dtd">
<!-- Creator: CorelDRAW 2021 (64-Bit) -->
<svg xmlns="http://www.w3.org/2000/svg" xml:space="preserve" width="39.2032mm" height="39.203mm" version="1.1" style="shape-rendering:geometricPrecision; text-rendering:geometricPrecision; image-rendering:optimizeQuality; fill-rule:evenodd; clip-rule:evenodd"
viewBox="0 0 964.9 964.9"
 xmlns:xlink="http://www.w3.org/1999/xlink"
 xmlns:xodm="http://www.corel.com/coreldraw/odm/2003">
 <defs>
  <style type="text/css">
   <![CDATA[
    .fil0 {fill:white}
   ]]>
  </style>
 </defs>
 <g id="Capa_x0020_1">
  <metadata id="CorelCorpID_0Corel-Layer"/>
  <path class="fil0" d="M844.33 401.92c0,-50.88 -15.75,-100.44 -37.55,-138.29 -62.15,-107.89 -182.74,-162.61 -306.45,-135.38 -40.91,9.01 -85.44,31.26 -117.48,58.36 -78.59,66.48 -118.6,176.08 -93.21,277.64 15.06,60.22 45.65,112.74 93.21,152.97 15.39,13.02 46.48,33.18 64.9,40.6 19.11,7.7 31.95,12.2 52.9,17.44 110.85,27.72 225.93,-20.55 292.77,-113.25 8.31,-11.53 20.3,-32.05 25.47,-44.86 14.78,-36.67 25.44,-73.44 25.44,-115.24zm120.58 -17.58c0,102.28 -14.81,153.7 -62.63,233.79 -38.87,65.08 -99.89,113.48 -166.8,147.21 -111.58,56.24 -264.03,51.17 -371.45,-13.74 -7.84,-4.74 -14.38,-8.98 -22.1,-13.06 -19.61,13.13 -181.43,185.54 -210.57,208.93 -31.42,25.22 -79,22.95 -107.93,-5.99 -28.44,-28.44 -31.2,-74.71 -7.08,-106.51 18.05,-23.79 197.5,-193.28 210.02,-211.99 -48.16,-91.02 -65.31,-117.67 -65.31,-238.64 0,-53.75 19.58,-117.42 37.67,-153.24 5.13,-10.16 9.93,-21.45 16.1,-31.62 68.84,-113.42 195.24,-199.47 330.56,-199.47 73.12,0 126.96,6.64 188.41,37.67 10.16,5.13 21.45,9.93 31.62,16.1 10.56,6.41 19.44,12.51 28.68,19.05 19.28,13.63 36.5,27.74 53.35,44.62 67.95,68.04 117.44,169.43 117.44,266.9z"/>
 </g>
</svg>
