<?xml version="1.0" encoding="UTF-8"?>
<!DOCTYPE svg PUBLIC "-//W3C//DTD SVG 1.1//EN" "http://www.w3.org/Graphics/SVG/1.1/DTD/svg11.dtd">
<!-- Creator: CorelDRAW 2021 (64-Bit) -->
<svg xmlns="http://www.w3.org/2000/svg" xml:space="preserve" width="152.4mm" height="40.8982mm" version="1.1" style="shape-rendering:geometricPrecision; text-rendering:geometricPrecision; image-rendering:optimizeQuality; fill-rule:evenodd; clip-rule:evenodd"
viewBox="0 0 15536.71 4169.44"
 xmlns:xlink="http://www.w3.org/1999/xlink"
 xmlns:xodm="http://www.corel.com/coreldraw/odm/2003">
 <defs>
  <style type="text/css">
   <![CDATA[
    .fil0 {fill:#EB3B37;fill-rule:nonzero}
   ]]>
  </style>
 </defs>
 <g id="Capa_x0020_1">
  <metadata id="CorelCorpID_0Corel-Layer"/>
  <g id="_2808137763696">
   <path class="fil0" d="M2130.31 0c-213.05,0 -441.03,0 -654.08,0 -1.26,889.39 -2.53,1465.46 -3.77,2354.83 -281.05,-867.92 -562.39,-1442.51 -844.42,-2354.83 -239.18,0 -388.86,0 -628.04,0 0,1389.8 0,2779.63 0,4169.44 212,-30.18 439.02,-59.09 651.27,-86.78 0.59,-871.45 1.21,-1407.17 1.8,-2278.64 292.07,857.76 471.64,1363.72 762.84,2178.9 228.29,-26.07 479.1,-58.16 707.61,-81.35 2.26,-1300.52 4.52,-2601.05 6.79,-3901.58z"/>
   <path class="fil0" d="M4573.37 0c-606.47,0 -1205.47,0 -1811.93,0 -2.43,1282.22 -4.87,2564.44 -7.32,3846.66 606.1,-55.12 1212.88,-100.19 1820.11,-135.19 0.33,-187.46 0.69,-456.96 1.01,-644.4 -394.85,24.26 -772.58,49.56 -1166.06,76 0.67,-344.72 1.37,-629.82 2.04,-974.55 287.56,-4.96 591.28,-0.6 885.04,-5.64 0.33,-188.42 0.68,-458.88 1.05,-647.32 -291.1,5.17 -598.53,5.76 -884.95,11.2 0.68,-344.74 1.35,-533.83 2.03,-878.6 180.19,-2.17 356.79,-2.46 533.05,-2.46 30.97,0 61.9,0 92.86,0.03 30.79,0 61.58,0 92.39,0 147.03,0 294.66,-0.16 444.77,-1.48 0.36,-187.48 -4.42,-456.82 -4.1,-644.26z"/>
   <path class="fil0" d="M7015.65 2.87c-665.06,0 -1352.52,0.03 -2017.58,0.07 -0.32,186.26 -0.61,454.56 -0.93,640.8 28.94,-0.2 57.9,-0.28 86.82,-0.28 87.64,0 175.29,0.83 262.97,1.71 87.57,0.85 175.14,1.73 262.76,1.73 22.48,0 44.92,-0.07 67.4,-0.18 -1.37,1033.7 -2.73,1977.86 -4.07,3011.58 213.49,-7.94 441.9,-14.64 655.42,-20.06 0.98,-1028.05 1.95,-1966.58 2.89,-2994.58 225.53,-0.88 458.55,-1.54 684.07,-2 0.08,-183.1 0.18,-455.7 0.25,-638.8z"/>
   <path class="fil0" d="M9259.52 0c-606.47,0 -1212.94,0 -1819.39,0 -0.17,1206.92 -0.36,2413.81 -0.53,3620.71 70.3,-0.3 141.44,-0.41 212.88,-0.41 145.47,0 292.07,0.55 435.34,1.66 -0.17,-512.18 -0.32,-979.62 -0.47,-1491.83 35.71,0.13 71.79,0.2 108.11,0.2 84.59,0 170.55,-0.35 256.86,-0.7 86.32,-0.35 172.99,-0.69 258.91,-0.69 88.54,0 176.26,0.35 262.03,1.54 -0.14,-183.62 -0.33,-456.75 -0.5,-640.37 -81,-0.82 -163.75,-1.09 -247.33,-1.09 -89.55,0 -180,0.33 -270.09,0.63 -89.99,0.33 -179.65,0.63 -267.72,0.63 -33.7,0 -67.22,-0.03 -100.45,-0.14 -0.11,-329.26 -0.18,-515.1 -0.29,-844.4 71.13,0.11 142.09,0.14 212.79,0.14 71.79,0 143.36,-0.03 214.89,-0.07 72.15,-0.03 144.25,-0.07 216.4,-0.07 175.76,0 351.66,0.18 529.1,0.99 -0.17,-184.04 -0.4,-462.71 -0.57,-646.73z"/>
   <path class="fil0" d="M9684.19 2.91c1.58,1218.55 -4.28,2437.1 -2.7,3655.7 581.69,21.64 1192.95,45.14 1773.92,85.3 -0.36,-187.45 -0.71,-457.02 -1.08,-644.46 -367.7,-21.63 -750.5,-47.55 -1118.49,-62.86 -1.66,-1043.58 4.1,-1990.11 2.44,-3033.64 -213.09,-0.04 -441.03,-0.04 -654.08,-0.04z"/>
   <path class="fil0" d="M11992.18 3.02c2.52,1260.17 4.96,2520.33 7.45,3780.53 213.12,16.47 433.62,34.13 646.57,53.08 0.75,-1277 2.52,-2555.71 0.07,-3833.57 -213.06,-0.04 -441.03,-0.04 -654.09,-0.04z"/>
   <path class="fil0" d="M13207 3.09c261.57,637.18 500.83,1276.18 766.48,1952.83 -276.07,649.96 -557.06,1295.63 -832.83,1919.12 228.44,22.55 464.77,55.52 693,80.95 163.75,-401.54 312.71,-710.63 476.6,-1123.04 163.63,439.3 312.39,778.67 475.59,1232.13 227.87,29.55 523.28,71.95 750.87,104.36 -275.89,-737.5 -577.63,-1505.4 -855.02,-2202.4 276.24,-654.55 558.13,-1279.39 845.09,-1963.74 -235.6,0 -478.65,-0.03 -714.25,-0.07 -177.09,422.98 -298.91,694.77 -468.66,1097.41 -158.13,-418.93 -264.23,-690.04 -422.62,-1097.48 -235.6,-0.03 -478.68,-0.03 -714.25,-0.07z"/>
  </g>
 </g>
</svg>
